Coordinates
version=1
nRows=9
nColumns=36
inDegrees=yes

Units are S.I. units (second, meters, Newtons, ...)
If the header above contains a line with 'inDegrees', this indicates whether rotational values are in degrees (yes) or radians (no).

endheader
time	pelvis_tilt	pelvis_list	pelvis_rotation	pelvis_tx	pelvis_ty	pelvis_tz	hip_flexion_r	hip_adduction_r	hip_rotation_r	knee_angle_r	knee_angle_r_beta	ankle_angle_r	subtalar_angle_r	mtp_angle_r	hip_flexion_l	hip_adduction_l	hip_rotation_l	knee_angle_l	knee_angle_l_beta	ankle_angle_l	subtalar_angle_l	mtp_angle_l	lumbar_extension	lumbar_bending	lumbar_rotation	arm_flex_r	arm_add_r	arm_rot_r	elbow_flex_r	pro_sup_r	arm_flex_l	arm_add_l	arm_rot_l	elbow_flex_l	pro_sup_l
      4.80000000	     -6.22101372	      0.10919260	      0.66820070	      0.41880882	      0.93252797	     -0.00059735	      2.44006064	     -7.00826569	     -2.99764186	      1.73395731	      0.03026326	      3.18902759	     -4.31125303	     -7.49999987	      2.35556548	     -4.46617537	      1.54522669	      0.94133174	      0.01642934	      0.05708628	     -6.98518124	     -7.49999987	      6.36708876	     -0.03388669	      7.08240390	    178.22812058	    -22.41217230	     72.65076624	     35.58396757	     70.23622906	    161.71735742	    -19.54423747	     66.47529308	     37.44682215	     70.67326771
      4.81666670	     -6.20734062	      0.11809793	      0.74097084	      0.41874846	      0.93261325	     -0.00081805	      2.41215247	     -7.03490863	     -3.13841195	      1.70296376	      0.02972232	      3.24215765	     -4.07120152	     -7.49999987	      2.37505977	     -4.41714165	      1.49182167	      0.96100968	      0.01677278	      0.15793477	     -6.82929108	     -7.49999987	      6.33270466	     -0.05120233	      7.23896751	    178.59976112	    -22.33868634	     73.03731916	     35.35085069	     73.30542890	    161.55270698	    -19.24517680	     64.76902822	     36.58073607	     75.31236525
      4.83333330	     -6.17492526	      0.12307532	      0.76845756	      0.41873723	      0.93528283	     -0.00096034	      2.35779194	     -7.04430156	     -3.14677270	      1.62833051	      0.02841973	      3.12568569	     -4.04288115	     -7.49999987	      2.37806823	     -4.39186730	      1.49652835	      0.94560641	      0.01650395	      0.09977942	     -6.82807481	     -7.49999987	      6.24958822	     -0.06240917	      7.15262643	    178.58371418	    -22.62683650	     72.84403417	     35.82374298	     73.33823109	    161.74910717	    -19.05593557	     65.01055773	     36.14530744	     75.14102313
      4.85000000	     -6.13712085	      0.12537597	      0.86233051	      0.41857352	      0.93515036	     -0.00113312	      2.27301355	     -7.03616007	     -3.13206693	      1.58982398	      0.02774766	      3.06471325	     -4.17466862	     -7.49999987	      2.37713302	     -4.36288961	      1.69948524	      0.92242375	      0.01609933	     -0.11614012	     -7.15535470	     -7.49999987	      6.13929925	     -0.10616859	      6.82939837	    178.43078862	    -22.75706749	     73.24344969	     36.39529415	     69.95167595	    162.21150101	    -19.07760437	     66.66805444	     36.29470467	     70.66478726
      4.86666670	     -6.08589001	      0.13957568	      0.85371452	      0.41859204	      0.93494559	     -0.00101635	      2.20085047	     -7.05107209	     -3.17950668	      1.54636446	      0.02698915	      3.15723648	     -3.91559539	     -7.49999987	      2.33430910	     -4.36195610	      1.51851053	      0.92899416	      0.01621401	      0.04732885	     -6.65330356	     -7.49999987	      6.03321942	     -0.10612329	      6.95046790	    178.69155665	    -22.71607040	     73.99059104	     36.53530346	     71.70904932	    162.24067360	    -18.96207311	     66.67660995	     36.09842910	     72.69106951
      4.88333330	     -6.12225589	      0.07868789	      0.84463207	      0.41849181	      0.93214847	     -0.00100549	      2.21818139	     -6.97934475	     -3.01905032	      1.51398046	      0.02642394	      3.04688486	     -4.00588327	     -7.49999987	      2.40036948	     -4.41715057	      1.65499330	      0.91730417	      0.01600998	     -0.02848769	     -6.91052556	     -7.49999987	      6.04880824	     -0.01988730	      6.67697667	    178.55295563	    -22.49814630	     74.35335789	     36.37033738	     69.78083274	    162.82204813	    -18.85680908	     68.33221996	     35.44021510	     70.31547387
      4.90000000	     -6.12063403	      0.05514659	      0.85442571	      0.41860822	      0.93220463	     -0.00088803	      2.19196446	     -6.92687542	     -2.99990672	      1.57066666	      0.02741330	      3.05675287	     -3.93843281	     -7.49999987	      2.40788478	     -4.45377941	      1.55911037	      0.91369184	      0.01594693	      0.18277544	     -6.57092058	     -7.49999987	      6.06274610	      0.02468298	      6.86767661	    178.69937640	    -22.33577350	     74.63871610	     36.16686356	     71.69657022	    162.53624460	    -18.75647164	     67.22635753	     35.08646806	     72.93403271
      4.91666670	     -6.09502104	      0.02331295	      0.91070652	      0.41856388	      0.93238653	     -0.00099717	      2.13214232	     -6.88837998	     -2.97254341	      1.57684225	      0.02752109	      3.03030001	     -3.89971123	     -7.49999987	      2.39653254	     -4.49942320	      1.60381120	      0.92734503	      0.01618522	      0.10834803	     -6.80622261	     -7.49999987	      6.03702314	      0.03470086	      6.66021184	    178.47880635	    -22.27489031	     74.86926262	     36.38829261	     70.79067233	    162.64821613	    -18.79697323	     67.58697818	     34.96475368	     72.47917268
      4.93333330	     -6.12315226	      0.02271855	      0.95206976	      0.41863459	      0.93238021	     -0.00089618	      2.15784745	     -6.90269583	     -2.90802639	      1.58012556	      0.02757839	      2.91850161	     -4.06129507	     -7.49999987	      2.42667577	     -4.51783547	      1.63724757	      0.94130500	      0.01642887	     -0.01356830	     -7.07328366	     -7.49999987	      6.07877457	     -0.01481933	      6.58590954	    178.48050893	    -22.34187774	     75.69767635	     36.64181089	     68.94198087	    162.75912321	    -18.86132950	     68.47681474	     35.13901291	     70.15966955
